<svg xmlns="http://www.w3.org/2000/svg" width="1200" height="360" viewBox="0 0 1200 360" role="img" aria-labelledby="title desc">
  <title id="title">Shuai WeChat Formatter</title>
  <desc id="desc">Obsidian 微信公众号排版助手：主题配色、开头刊头、结尾钩子、实时预览和一键复制。</desc>
  <rect width="1200" height="360" rx="26" fill="#17171E"/>
  <rect x="1" y="1" width="1198" height="358" rx="25" fill="none" stroke="#393943"/>

  <g font-family="-apple-system, BlinkMacSystemFont, 'Segoe UI', 'PingFang SC', sans-serif">
    <text x="64" y="57" fill="#53CFA1" font-size="17" font-weight="600" letter-spacing="2">OBSIDIAN 社区插件</text>
    <text x="64" y="132" fill="#FAF9FC" font-size="55" font-weight="750">微信公众号排版助手</text>
    <text x="67" y="168" fill="#53CFA1" font-size="16" font-weight="700" letter-spacing="3">SHUAI WECHAT FORMATTER</text>
    <text x="64" y="221" fill="#D0D0D7" font-size="21">选主题配色，调字体、行距和页边距，</text>
    <text x="64" y="252" fill="#D0D0D7" font-size="21">添加刊头与结尾钩子，预览后一键复制。</text>
    <g fill="#E9E8EE" font-size="17">
      <circle cx="70" cy="294" r="5" fill="#53CFA1"/><text x="85" y="300">主题风格</text>
      <circle cx="217" cy="294" r="5" fill="#53CFA1"/><text x="232" y="300">开头刊头</text>
      <circle cx="364" cy="294" r="5" fill="#53CFA1"/><text x="379" y="300">结尾钩子</text>
    </g>
  </g>

  <rect x="716" y="76" width="178" height="226" rx="20" fill="#F8F7FB"/>
  <svg x="737" y="101" width="26" height="26" viewBox="0 0 512 512" fill="none">

	<radialGradient id="logo-bottom-left" cx="0" cy="0" gradientTransform="matrix(-59 -225 150 -39 161.4 470)" gradientUnits="userSpaceOnUse" r="1">
		<stop offset="0" stop-color="#fff" stop-opacity=".4"/>
		<stop offset="1" stop-opacity=".1"/>
	</radialGradient>
	<radialGradient id="logo-top-right" cx="0" cy="0" gradientTransform="matrix(50 -379 280 37 360 374.2)" gradientUnits="userSpaceOnUse" r="1">
		<stop offset="0" stop-color="#fff" stop-opacity=".6"/>
		<stop offset="1" stop-color="#fff" stop-opacity=".1"/>
	</radialGradient>
	<radialGradient id="logo-top-left" cx="0" cy="0" gradientTransform="matrix(69 -319 218 47 175.4 307)" gradientUnits="userSpaceOnUse" r="1">
		<stop offset="0" stop-color="#fff" stop-opacity=".8"/>
		<stop offset="1" stop-color="#fff" stop-opacity=".4"/>
	</radialGradient>
	<radialGradient id="logo-bottom-right" cx="0" cy="0" gradientTransform="matrix(-96 -163 187 -111 335.3 512.2)" gradientUnits="userSpaceOnUse" r="1">
		<stop offset="0" stop-color="#fff" stop-opacity=".3"/>
		<stop offset="1" stop-opacity=".3"/>
	</radialGradient>
	<radialGradient id="logo-top-edge" cx="0" cy="0" gradientTransform="matrix(-36 166 -112 -24 310 128.2)" gradientUnits="userSpaceOnUse" r="1">
		<stop offset="0" stop-color="#fff" stop-opacity="0"/>
		<stop offset="1" stop-color="#fff" stop-opacity=".2"/>
	</radialGradient>
	<radialGradient id="logo-left-edge" cx="0" cy="0" gradientTransform="matrix(88 89 -190 187 111 220.2)" gradientUnits="userSpaceOnUse" r="1">
		<stop offset="0" stop-color="#fff" stop-opacity=".2"/>
		<stop offset="1" stop-color="#fff" stop-opacity=".4"/>
	</radialGradient>
	<radialGradient id="logo-bottom-edge" cx="0" cy="0" gradientTransform="matrix(9 130 -276 20 215 284)" gradientUnits="userSpaceOnUse" r="1">
		<stop offset="0" stop-color="#fff" stop-opacity=".2"/>
		<stop offset="1" stop-color="#fff" stop-opacity=".3"/>
	</radialGradient>
	<radialGradient id="logo-middle-edge" cx="0" cy="0" gradientTransform="matrix(-198 -104 327 -623 400 399.2)" gradientUnits="userSpaceOnUse" r="1">
		<stop offset="0" stop-color="#fff" stop-opacity=".2"/>
		<stop offset=".5" stop-color="#fff" stop-opacity=".2"/>
		<stop offset="1" stop-color="#fff" stop-opacity=".3"/>
	</radialGradient>
	<clipPath id="clip">
		<path d="M.2.2h512v512H.2z"/>
	</clipPath>
	<g clip-path="url(#clip)">
		<path d="M382.3 475.6c-3.1 23.4-26 41.6-48.7 35.3-32.4-8.9-69.9-22.8-103.6-25.4l-51.7-4a34 34 0 0 1-22-10.2l-89-91.7a34 34 0 0 1-6.7-37.7s55-121 57.1-127.3c2-6.3 9.6-61.2 14-90.6 1.2-7.9 5-15 11-20.3L248 8.9a34.1 34.1 0 0 1 49.6 4.3L386 125.6a37 37 0 0 1 7.6 22.4c0 21.3 1.8 65 13.6 93.2 11.5 27.3 32.5 57 43.5 71.5a17.3 17.3 0 0 1 1.3 19.2 1494 1494 0 0 1-44.8 70.6c-15 22.3-21.9 49.9-25 73.1z" fill="#6c31e3"/>
		<path d="M165.9 478.3c41.4-84 40.2-144.2 22.6-187-16.2-39.6-46.3-64.5-70-80-.6 2.3-1.3 4.4-2.2 6.5L60.6 342a34 34 0 0 0 6.6 37.7l89.1 91.7a34 34 0 0 0 9.6 7z" fill="url(#logo-bottom-left)"/>
		<path d="M278.4 307.8c11.2 1.2 22.2 3.6 32.8 7.6 34 12.7 65 41.2 90.5 96.3 1.8-3.1 3.6-6.2 5.6-9.2a1536 1536 0 0 0 44.8-70.6 17 17 0 0 0-1.3-19.2c-11-14.6-32-44.2-43.5-71.5-11.8-28.2-13.5-72-13.6-93.2 0-8.1-2.6-16-7.6-22.4L297.6 13.2a34 34 0 0 0-1.5-1.7 96 96 0 0 1 2 54 198.3 198.3 0 0 1-17.6 41.3l-7.2 14.2a171 171 0 0 0-19.4 71c-1.2 29.4 4.8 66.4 24.5 115.8z" fill="url(#logo-top-right)"/>
		<path d="M278.4 307.8c-19.7-49.4-25.8-86.4-24.5-115.9a171 171 0 0 1 19.4-71c2.3-4.8 4.8-9.5 7.2-14.1 7.1-13.9 14-27 17.6-41.4a96 96 0 0 0-2-54A34.1 34.1 0 0 0 248 9l-105.4 94.8a34.1 34.1 0 0 0-10.9 20.3l-12.8 85-.5 2.3c23.8 15.5 54 40.4 70.1 80a147 147 0 0 1 7.8 24.8c28-6.8 55.7-11 82.1-8.3z" fill="url(#logo-top-left)"/>
		<path d="M333.6 511c22.7 6.2 45.6-12 48.7-35.4a187 187 0 0 1 19.4-63.9c-25.6-55-56.5-83.6-90.4-96.3-36-13.4-75.2-9-115 .7 8.9 40.4 3.6 93.3-30.4 162.2 4 1.8 8.1 3 12.5 3.3 0 0 24.4 2 53.6 4.1 29 2 72.4 17.1 101.6 25.2z" fill="url(#logo-bottom-right)"/>
		<g clip-rule="evenodd" fill-rule="evenodd">
			<path d="M254.1 190c-1.3 29.2 2.4 62.8 22.1 112.1l-6.2-.5c-17.7-51.5-21.5-78-20.2-107.6a174.7 174.7 0 0 1 20.4-72c2.4-4.9 8-14.1 10.5-18.8 7.1-13.7 11.9-21 16-33.6 5.7-17.5 4.5-25.9 3.8-34.1 4.6 29.9-12.7 56-25.7 82.4a177.1 177.1 0 0 0-20.7 72z" fill="url(#logo-top-edge)"/>
			<path d="M194.3 293.4c2.4 5.4 4.6 9.8 6 16.5L195 311c-2.1-7.8-3.8-13.4-6.8-20-17.8-42-46.3-63.6-69.7-79.5 28.2 15.2 57.2 39 75.7 81.9z" fill="url(#logo-left-edge)"/>
			<path d="M200.6 315.1c9.8 46-1.2 104.2-33.6 160.9 27.1-56.2 40.2-110.1 29.3-160z" fill="url(#logo-bottom-edge)"/>
			<path d="M312.5 311c53.1 19.9 73.6 63.6 88.9 100-19-38.1-45.2-80.3-90.8-96-34.8-11.8-64.1-10.4-114.3 1l-1.1-5c53.2-12.1 81-13.5 117.3 0z" fill="url(#logo-middle-edge)"/>
		</g>
	</g>
  </svg>
  <text x="773" y="120" fill="#292735" font-family="-apple-system, BlinkMacSystemFont, 'Segoe UI', 'PingFang SC', sans-serif" font-size="17" font-weight="700">Obsidian</text>
  <g stroke="#9CA8A5" stroke-width="7" stroke-linecap="round">
    <path d="M738 164H869M738 193H844M738 222H865M738 251H825"/>
  </g>
  <rect x="738" y="275" width="62" height="15" rx="6" fill="#53CFA1"/>

  <path d="M910 189H937M928 179L938 189 928 199" fill="none" stroke="#53CFA1" stroke-width="4" stroke-linecap="round" stroke-linejoin="round"/>

  <rect x="953" y="76" width="190" height="226" rx="20" fill="#23242C" stroke="#45454F"/>
  <rect x="980" y="101" width="36" height="36" rx="9" fill="#30C78A"/>
<g transform="translate(984 105) scale(0.027)" fill="#07100D">
      <path d="M250.368 549.888c-2.56-3.072 4.096-21.504 5.12-24.576 5.632-22.016 12.8-43.52 22.016-64 29.696-67.584 76.8-126.976 135.68-172.032C537.6 193.536 706.048 169.984 851.456 230.4c-3.072-1.024-7.68-13.824-9.216-16.384-9.216-14.848-18.944-28.672-30.208-41.984-34.816-42.496-77.824-78.848-126.464-104.448-119.808-61.952-263.68-53.76-374.272 24.064-67.072 47.104-119.808 121.856-134.656 202.752-11.776 65.024 3.584 134.144 33.28 192.512 11.264 22.528 25.088 43.52 40.448 62.976z"/>
      <path d="M559.616 305.664c12.288-5.12 51.2 15.36 61.44 19.968 48.64 20.992 92.16 52.736 127.488 91.648 102.4 112.128 134.656 278.016 72.192 417.792-9.216 20.48-20.48 40.448-33.28 58.88-7.168 10.24-14.336 19.968-22.528 29.184-4.608 5.632-17.92 25.6-24.576 26.624 68.096-11.776 135.168-55.296 181.248-104.96 117.76-125.44 140.288-321.024 27.136-457.216-4.608-5.12-9.216-10.752-13.824-15.36-95.744-100.352-249.856-120.32-375.296-66.56z"/>
      <path d="M92.16 363.52s-10.24 210.432 223.232 366.08c0 0 22.528 5.12 16.384 31.232l-13.824 72.704s-7.68 33.792 25.088 16.384l81.408-53.76s16.384-17.408 50.176-10.24c0 0 176.64 30.208 293.376-72.704-2.048 1.536-2.048 13.312-2.56 15.872-3.072 14.336-6.656 28.16-11.264 41.984-14.848 43.52-36.864 84.48-67.584 118.784-107.52 122.368-291.84 126.464-437.76 82.944-103.424-31.232-195.584-103.424-230.4-207.872C-5.12 694.784-5.12 618.496 15.36 547.328c8.704-30.72 16.896-60.928 28.672-90.624 6.656-16.384 13.824-32.768 22.016-48.64 4.608-10.24 26.112-34.816 26.112-44.544z"/>
      <text x="512" y="650" text-anchor="middle" font-family="PingFang SC, Microsoft YaHei, sans-serif" font-size="360" font-weight="800">帅</text>
    </g>
  <text x="1026" y="126" fill="#F6F5FA" font-family="-apple-system, BlinkMacSystemFont, 'Segoe UI', 'PingFang SC', sans-serif" font-size="16" font-weight="700">公众号预览</text>
  <g stroke="#899390" stroke-width="7" stroke-linecap="round">
    <path d="M979 166H1117M979 194H1092M979 222H1115M979 250H1070M979 278H1095"/>
  </g>
</svg>
